<svg xmlns="http://www.w3.org/2000/svg" width="199" height="53">
    <path fill="#68B0C9" fill-rule="evenodd" d="M198.707 48.135l-1.949.449-.189-.821-10.656-1.583.294-1.978 8.824 1.311-7.703-9.299 1.422-1.407 6.7 8.089-1.157-5.033 1.949-.448 2.048 8.91.382.46-.225.222.26 1.128zm-20.534-19.613l1.283-1.535 5.371 4.49-1.283 1.534-5.371-4.489zm-10.198-6.433l1.013-1.724 6.036 3.545-1.013 1.724-6.036-3.545zm-12.1-6.419l.721-1.866 6.529 2.525-.721 1.866-6.529-2.525zM142.86 9.934l.584-1.913 6.695 2.043-.583 1.913-6.696-2.043zm-11.99-2.659l.403-1.959 6.856 1.408-.402 1.959-6.857-1.408zm-12.999-2.988l.396-1.96 6.862 1.385-.396 1.96-6.862-1.385zm-14.925-1.501l.121-1.996 6.987.423-.121 1.996-6.987-.423zM89.915 1.371l6.961-.732.209 1.989-6.961.732-.209-1.989zM73.893 3.51l6.928-1.001.286 1.98-6.928 1-.286-1.979zm-14.03 4.338l6.805-1.641.469 1.944-6.805 1.641-.469-1.944zm-12.968 5.657l6.399-2.839.811 1.828-6.399 2.839-.811-1.828zm-11.898 7.484l5.954-3.68 1.052 1.701-5.955 3.68-1.051-1.701zm-10.804 7.532l5.31-4.561 1.303 1.518-5.31 4.56-1.303-1.517zm-8.863 8.267l4.917-4.982 1.423 1.405-4.917 4.982-1.423-1.405zM10 48c0 2.761-2.239 5-5 5-2.762 0-5-2.239-5-5s2.238-5 5-5c1.164 0 2.232.401 3.082 1.068l4.126-4.283 1.44 1.388-4.263 4.425c.391.713.615 1.531.615 2.402zm-5-3c-1.657 0-3 1.343-3 3s1.343 3 3 3 3-1.343 3-3-1.343-3-3-3z"/>
</svg>
