<svg xmlns="http://www.w3.org/2000/svg" width="199" height="52">
    <path fill="#68B0C9" fill-rule="evenodd" d="M194 52c-2.762 0-5-2.225-5-4.969 0-.86.22-1.669.607-2.374l-4.275-4.399 1.442-1.378 4.133 4.252c.851-.668 1.924-1.07 3.093-1.07 2.761 0 5 2.225 5 4.969S196.761 52 194 52zm0-7.938c-1.657 0-3 1.329-3 2.969S192.343 50 194 50s3-1.329 3-2.969-1.343-2.969-3-2.969zm-16.701-11.71l1.426-1.394 4.923 4.946-1.425 1.395-4.924-4.947zm-9.149-7.677l1.305-1.507 5.317 4.529-1.305 1.506-5.317-4.528zm-11.213-6.422l1.053-1.689 5.963 3.654-1.053 1.689-5.963-3.654zm-12.119-6.469l.813-1.815 6.407 2.819-.812 1.815-6.408-2.819zm-13.05-4.312l.469-1.93 6.815 1.629-.469 1.93-6.815-1.629zm-13.99-3.636l.286-1.965 6.938.994-.286 1.965-6.938-.994zm-16.001-1.847l.209-1.975 6.972.726-.209 1.975-6.972-.726zM88.79.584l6.997-.421.121 1.982-6.997.421L88.79.584zM73.694 3.065l6.872-1.375.396 1.946-6.872 1.375-.396-1.946zm-13.019 2.99l6.867-1.397.402 1.945L61.077 8l-.402-1.945zM48.648 9.372l6.705-2.028.584 1.899-6.705 2.028-.584-1.899zm-13.004 6.22l6.538-2.507.722 1.852-6.538 2.507-.722-1.852zm-11.916 7.526l6.044-3.52 1.014 1.712-6.044 3.52-1.014-1.712zm-9.817 7.513l5.379-4.457 1.284 1.523-5.378 4.457-1.285-1.523zM1.964 47.615L.012 47.17l.259-1.12-.224-.22.382-.457 2.051-8.846 1.952.445-1.159 4.996 6.71-8.03 1.424 1.396-7.714 9.233 8.837-1.302.294 1.964-10.672 1.572-.188.814z"/>
</svg>
