<svg xmlns="http://www.w3.org/2000/svg" width="87" height="29">
    <path fill="#939393" fill-rule="evenodd" d="M83.371 28.287c-1.91.35-3.744-.907-4.096-2.807-.096-.521-.061-1.033.065-1.514l-6.491-1.319.402-1.959 7.252 1.474c.447-.368.982-.644 1.594-.756 1.91-.35 3.743.907 4.095 2.807.352 1.9-.911 3.724-2.821 4.074zm.845-3.712c-.151-.814-.937-1.353-1.755-1.203-.819.15-1.36.932-1.209 1.746.151.814.936 1.353 1.755 1.203.818-.15 1.36-.932 1.209-1.746zm-21.17-5.213l.402-1.959 7.55 1.535-.402 1.958-7.55-1.534zm-10.791-3.104l.403-1.959 7.55 1.535-.403 1.958-7.55-1.534zm-10.79-3.104l.402-1.959 7.55 1.535-.402 1.958-7.55-1.534zm-11.779-2.923l.402-1.959 7.55 1.535-.402 1.958-7.55-1.534zM17.907 7.308l.402-1.959 7.55 1.535-.402 1.958-7.55-1.534zm-4.229-1.389L7.582 4.68c-.372 1.207-1.376 2.177-2.71 2.421-1.91.35-3.744-.906-4.096-2.806-.351-1.9.912-3.724 2.821-4.074C5.371-.104 7.063.964 7.58 2.639l6.501 1.322-.403 1.958zM5.717 3.39c-.151-.815-.937-1.353-1.755-1.204-.819.15-1.36.932-1.209 1.746.15.815.936 1.353 1.754 1.203.819-.15 1.36-.931 1.21-1.745z"/>
</svg>
