<svg xmlns="http://www.w3.org/2000/svg" width="87" height="23">
    <path fill="#939393" fill-rule="evenodd" d="M85.538 6.62c-1.567 1.141-3.768.802-4.914-.757-.315-.428-.507-.904-.603-1.392l-6.423 1.618-.494-1.938 7.176-1.807c.242-.525.603-1.004 1.105-1.37 1.567-1.141 3.768-.802 4.914.758 1.147 1.559.806 3.748-.761 4.888zm-.86-3.708c-.492-.668-1.435-.813-2.106-.325-.672.489-.818 1.427-.327 2.095.492.669 1.435.814 2.106.325.672-.489.818-1.427.327-2.095zM62.841 5.43l7.47-1.882.493 1.938-7.47 1.882-.493-1.938zM51.766 7.299l7.47-1.882.494 1.938-7.471 1.882-.493-1.938zM40.692 9.168l7.47-1.882.493 1.938-7.47 1.881-.493-1.937zm-11.886 2.458l7.47-1.881.494 1.938-7.471 1.881-.493-1.938zm-11.885 2.459l7.47-1.881.493 1.938-7.47 1.881-.493-1.938zM5.583 21.472c-1.567 1.141-3.767.802-4.914-.758-1.147-1.559-.806-3.748.761-4.888 1.459-1.062 3.465-.84 4.661.452l6.415-1.615.493 1.937-6.032 1.52c.192 1.248-.289 2.555-1.384 3.352zm-.86-3.708c-.492-.669-1.434-.814-2.106-.325-.672.489-.818 1.427-.326 2.095.491.668 1.434.814 2.106.325.671-.489.817-1.427.326-2.095z"/>
</svg>
