<svg xmlns="http://www.w3.org/2000/svg" width="84" height="34">
    <path fill="#5EA5BD" fill-rule="evenodd" d="M82.712 32.771c-1.362 1.372-3.578 1.38-4.949.017-.959-.951-1.235-2.316-.86-3.523l-5.708-2.401.776-1.844 6.087 2.562c1.37-1.094 3.364-1.025 4.638.24 1.371 1.362 1.379 3.578.016 4.949zm-1.426-3.53c-.588-.584-1.537-.581-2.121.007-.584.588-.581 1.537.007 2.121.588.584 1.537.581 2.121-.007.584-.588.581-1.537-.007-2.121zm-21.419-6.582l.776-1.843 7.069 2.975-.775 1.843-7.07-2.975zm-11.328-4.203l.776-1.844 7.069 2.975-.775 1.843-7.07-2.974zm-11.328-4.205l.776-1.843 7.069 2.975-.776 1.843-7.069-2.975zm-10.619-3.499l.776-1.844 7.069 2.975-.775 1.844-7.07-2.975zm-10.618-3.5l.775-1.843 7.07 2.975-.776 1.843-7.069-2.975zM7.056 4.875c-.168.468-.429.91-.802 1.286-1.362 1.372-3.578 1.379-4.95.017C-.067 4.816-.075 2.6 1.287 1.228c1.362-1.371 3.579-1.379 4.95-.016.439.436.723.964.882 1.519l6.791 2.858-.776 1.843-6.078-2.557zM4.828 2.63c-.588-.583-1.538-.58-2.122.008-.583.588-.58 1.537.008 2.121.587.584 1.537.581 2.121-.007.584-.588.581-1.538-.007-2.122z"/>
</svg>
