<svg xmlns="http://www.w3.org/2000/svg" width="88" height="22">
    <path fill="#5EA5BD" fill-rule="evenodd" d="M86.615 20.496c-1.141 1.56-3.331 1.9-4.891.758-1.09-.797-1.568-2.105-1.378-3.354l-6.003-1.52.491-1.939 6.385 1.617c1.19-1.294 3.186-1.516 4.638-.453 1.56 1.141 1.9 3.331.758 4.891zm-1.939-3.277c-.668-.489-1.607-.344-2.096.325-.489.668-.344 1.607.325 2.096.668.489 1.607.344 2.096-.325.489-.668.344-1.607-.325-2.096zM62.513 13.92l.491-1.939 7.435 1.883-.49 1.938-7.436-1.882zm-11.83-2.46l.491-1.939 7.435 1.882-.49 1.939-7.436-1.882zM38.853 9l.491-1.939 7.435 1.882-.49 1.939L38.853 9zM27.83 7.13l.491-1.939 7.436 1.882-.491 1.939L27.83 7.13zM16.807 5.26l.491-1.939 7.436 1.883-.491 1.939-7.436-1.883zM7.634 4.245c-.096.488-.287.964-.6 1.392-1.142 1.56-3.332 1.899-4.892.758C.582 5.253.243 3.063 1.384 1.503 2.526-.057 4.716-.396 6.276.745c.5.366.859.846 1.1 1.371l7.142 1.808-.491 1.939-6.393-1.618zM5.095 2.36c-.669-.49-1.607-.344-2.096.324-.49.669-.344 1.607.324 2.097.669.489 1.608.343 2.097-.325.489-.669.343-1.607-.325-2.096z"/>
</svg>
