<svg xmlns="http://www.w3.org/2000/svg" width="85" height="34">
    <path fill="#939393" fill-rule="evenodd" d="M83.375 6.38c-1.378 1.362-3.604 1.354-4.973-.017-.375-.376-.637-.818-.805-1.286L71.49 7.634l-.78-1.843 6.823-2.856c.16-.555.445-1.083.886-1.519 1.378-1.361 3.605-1.354 4.973.017 1.369 1.371 1.361 3.586-.017 4.947zm-1.408-3.538c-.587-.588-1.541-.591-2.132-.008-.59.584-.593 1.533-.007 2.121.587.587 1.541.59 2.131.007.591-.584.594-1.533.008-2.12zM60.755 8.585l7.103-2.974.779 1.843-7.103 2.973-.779-1.842zm-10.668 3.497l7.103-2.973.779 1.842-7.103 2.974-.779-1.843zM39.418 15.58l7.103-2.973.779 1.842-7.103 2.973-.779-1.842zm-11.381 4.202l7.103-2.973.779 1.842-7.103 2.973-.779-1.842zm-11.381 4.202l7.103-2.974.779 1.843-7.103 2.973-.779-1.842zM6.558 32.976c-1.378 1.362-3.604 1.354-4.973-.017-1.368-1.37-1.361-3.585.017-4.947 1.28-1.264 3.283-1.332 4.66-.24l6.115-2.56.78 1.843-5.735 2.4c.377 1.206.099 2.57-.864 3.521zm-3.54-3.545c-.59.583-.594 1.532-.007 2.12.587.587 1.541.59 2.131.007.591-.584.594-1.533.007-2.12-.586-.588-1.54-.591-2.131-.007z"/>
</svg>
