<svg xmlns="http://www.w3.org/2000/svg" width="144" height="54">
    <path fill="#68B0C9" fill-rule="evenodd" d="M141.698 52.578c-1.8 1.385-4.375 1.048-5.752-.753-1.194-1.562-1.09-3.711.132-5.158l-6.416-7.565 2.353-2.072 6.932 8.174-.011.01c1.322-.09 2.662.461 3.528 1.594 1.377 1.801 1.034 4.384-.766 5.77zm-.683-4.655c-.764-1.001-2.195-1.188-3.195-.418-1 .769-1.19 2.204-.426 3.205.765 1.001 2.196 1.188 3.196.418 1-.769 1.19-2.204.425-3.205zm-20.018-19.5l1.994-1.883 5.616 5.985-1.994 1.882-5.616-5.984zm-9.925-9.41l1.821-2.052 6.124 5.461-1.821 2.052-6.124-5.461zM97.63 11.466l1.447-2.332 6.964 4.333-1.446 2.332-6.965-4.333zm-11.102-4.63l1.037-2.541 7.593 3.098-1.037 2.541-7.593-3.098zm-11.833-2.48l.407-2.713 8.115 1.205-.408 2.713-8.114-1.205zm-12.657-1.15l.069-2.742 8.204.188-.07 2.742-8.203-.188zM48.851 1.799l8.179-.691.223 2.733-8.179.692-.223-2.734zM36.906 3.447l8.009-1.812.595 2.676-8.009 1.812-.595-2.676zm-10.9 4.736l7.432-3.509 1.16 2.481-7.432 3.509-1.16-2.481zm-10.352 4.515l7.431-3.509 1.16 2.481-7.431 3.509-1.16-2.481zM6.68 26.426c-1.8 1.386-4.375 1.048-5.752-.752-1.376-1.802-1.034-4.385.766-5.77 1.417-1.091 3.307-1.099 4.721-.181l5.994-4.613 1.662 2.175-5.993 4.613c.517 1.609.019 3.438-1.398 4.528zm-.682-4.654c-.765-1.001-2.196-1.188-3.196-.419-1 .77-1.19 2.205-.425 3.206.765 1 2.195 1.188 3.195.418s1.191-2.205.426-3.205z"/>
</svg>
