<svg xmlns="http://www.w3.org/2000/svg" width="155" height="64">
    <path fill="#68B0C9" fill-rule="evenodd" d="M154.205 38.388l.045.071-.088.065-3.627 11.49-1.797-.882 2.706-8.572-9.598 7.187-1.065-1.686 9.626-7.209-9.893-.837.165-1.978 11.876 1.003.24-.76 1.797.882-.387 1.226zm-24.102 12.996l6.259-3.1.899 1.778-6.259 3.1-.899-1.778zm-11.408 3.867l6.692-2.035.594 1.9-6.692 2.035-.594-1.9zm-13.258 3.416l6.939-.936.277 1.968-6.939.937-.277-1.969zm-13.993 2.544l6.991-.431.132 1.982-6.991.432-.132-1.983zm-12.348 1.794l.055-1.985 7.004.219-.055 1.985-7.004-.219zm-15.894-2.091l.055-1.986 7.933 1.285-.055 1.986-7.933-1.285zm-13.831-5.088l.901-1.77 6.258 3.151-.901 1.771-6.258-3.152zm-11.414-7.455l1.208-1.58 5.587 4.217-1.208 1.58-5.587-4.217zm-9.887-9.972l1.413-1.401 4.963 4.927-1.414 1.402-4.962-4.928zm-8.809-9.766l1.616-1.166 4.134 5.63-1.617 1.166-4.133-5.63zM12.51 18.604l1.708-1.029 3.654 5.947-1.708 1.029-3.654-5.947zm-2.358-3.614L7.109 9.902c-.981.448-2.113.59-3.248.322C1.17 9.588-.501 6.91.13 4.241.76 1.573 3.453-.074 6.144.562c2.692.636 4.362 3.314 3.732 5.982-.199.842-.604 1.581-1.148 2.179l3.145 5.258-1.721 1.009zM5.688 2.494c-1.615-.381-3.231.607-3.609 2.208-.378 1.601.624 3.208 2.239 3.589 1.615.382 3.23-.606 3.609-2.207.378-1.601-.625-3.208-2.239-3.59z"/>
</svg>
