<svg xmlns="http://www.w3.org/2000/svg" width="122" height="109">
    <path fill="#68B0C9" fill-rule="evenodd" d="M117.5 109c-1.563 0-2.938-.798-3.745-2.008l-.001.016-11.735-.594.226-3.423 10.862.551c.44-2.025 2.237-3.542 4.393-3.542 2.485 0 4.5 2.014 4.5 4.5 0 2.485-2.015 4.5-4.5 4.5zm0-7c-1.381 0-2.5 1.119-2.5 2.5s1.119 2.5 2.5 2.5 2.5-1.119 2.5-2.5-1.119-2.5-2.5-2.5zm-30.628 3.539l.302-2.984 8.954.905-.302 2.985-8.954-.906zm-15.074-2.413l.565-2.947 8.839 1.695-.565 2.946-8.839-1.694zm-16.038-6.81l1.058-2.807 8.422 3.175-1.059 2.807-8.421-3.175zm-11.902-6.793l1.514-2.589 7.77 4.542-1.514 2.59-7.77-4.543zm-10.637-9.071l2.085-2.158 6.472 6.254-2.084 2.158-6.473-6.254zm-9.713-10.514l2.335-1.883 5.649 7.007-2.336 1.883-5.648-7.007zm-7.704-12.412l2.523-1.622 4.869 7.569-2.524 1.623-4.868-7.57zM9.248 46.047l2.722-1.261 3.782 8.167-2.723 1.261-3.781-8.167zM6.074 33.423l2.931-.64 1.921 8.793-2.931.64-1.921-8.793zM6 8.724V17H3V8.724C1.256 8.104 0 6.456 0 4.5 0 2.015 2.014 0 4.5 0 6.985 0 9 2.015 9 4.5c0 1.956-1.256 3.605-3 4.224zM4.5 2C3.119 2 2 3.119 2 4.5S3.119 7 4.5 7 7 5.881 7 4.5 5.881 2 4.5 2zm3.426 27.576l-2.931.64-1.921-8.792 2.931-.64 1.921 8.792z"/>
</svg>
