<svg xmlns="http://www.w3.org/2000/svg" width="22" height="21">
    <path fill="#68B0C9" fill-rule="evenodd" d="M20 12v8.999H2V12s-1.976.539-2-3c-.025-3.598 4-3 4-3h2s-2.899-.397-3-2c-.132-2.091 2.188-2.913 3-3C9.083.67 9.937 4 9.937 4l2.035.006S14.344 1.019 16 1c1.848-.022 2.968.806 3.062 3.297C19.113 5.659 17 6 17 6h3s1.979.118 2 3c.017 2.336-2 3-2 3zM8 3c-.688-.875-2.938-.344-3 1-.063 1.343 4 1 4 1s-.313-1.125-1-2zm1 5H3s-1.095.136-1 2c.057 1.116 1 1 1 1h6V8zm0 5H4v6h5v-6zm4 6h5v-6h-5v6zm3-16c-1.344-.094-3 2-3 2s2.781.562 4 0c1.219-.563.344-1.907-1-2zm3 5h-6v3h6s.925.105 1-1c.139-2.073-1-2-1-2z"/>
</svg>
