<svg xmlns="http://www.w3.org/2000/svg" width="122" height="109"><path fill="#68B0C9" fill-rule="evenodd" d="M117.5 109a4.494 4.494 0 01-3.745-2.008l-.001.016-11.735-.594.226-3.423 10.862.551a4.498 4.498 0 018.893.958 4.5 4.5 0 01-4.5 4.5zm0-7a2.5 2.5 0 100 5 2.5 2.5 0 000-5zm-30.628 3.539l.302-2.984 8.954.905-.302 2.985-8.954-.906zm-15.074-2.413l.565-2.947 8.839 1.695-.565 2.946-8.839-1.694zm-16.038-6.81l1.058-2.807 8.422 3.175-1.059 2.807-8.421-3.175zm-11.902-6.793l1.514-2.589 7.77 4.542-1.514 2.59-7.77-4.543zm-10.637-9.071l2.085-2.158 6.472 6.254-2.084 2.158-6.473-6.254zm-9.713-10.514l2.335-1.883 5.649 7.007-2.336 1.883-5.648-7.007zm-7.704-12.412l2.523-1.622 4.869 7.569-2.524 1.623-4.868-7.57zM9.248 46.047l2.722-1.261 3.782 8.167-2.723 1.261-3.781-8.167zM6.074 33.423l2.931-.64 1.921 8.793-2.931.64-1.921-8.793zM6 8.724V17H3V8.724C1.256 8.104 0 6.456 0 4.5a4.5 4.5 0 119 0c0 1.956-1.256 3.605-3 4.224zM4.5 2a2.5 2.5 0 100 5 2.5 2.5 0 000-5zm3.426 27.576l-2.931.64-1.921-8.792 2.931-.64 1.921 8.792z"/></svg>