<svg xmlns="http://www.w3.org/2000/svg" width="82" height="42"><path fill="#5EA5BD" fill-rule="evenodd" d="M77.761 7.702a3.487 3.487 0 01-3.055-1.953L68.92 7.957l-.713-1.869 6.17-2.354C74.612 1.997 76.1.668 77.895.703a3.5 3.5 0 11-.134 6.999zm.096-5a1.5 1.5 0 10-.058 2.998 1.5 1.5 0 00.058-2.998zm-20.744 8.175l7.166-2.735.713 1.869-7.166 2.734-.713-1.868zm-11.094 4.788l7.167-2.734.712 1.868-7.165 2.735-.714-1.869zm-11.093 4.788l7.166-2.734.713 1.868-7.166 2.735-.713-1.869zm-10.094 4.808l7.166-2.734.713 1.868-7.166 2.735-.713-1.869zm-10.094 4.808l7.166-2.735.713 1.869-7.166 2.734-.713-1.868zm-7.067 7.796a3.5 3.5 0 11-3.433-3.567c.62.012 1.189.198 1.689.489l6.883-2.626.713 1.868-6.162 2.352c.203.454.32.954.31 1.484zM4.2 36.298a1.5 1.5 0 10-.058 2.998 1.5 1.5 0 00.058-2.998z"/></svg>