<svg xmlns="http://www.w3.org/2000/svg" width="82" height="41"><path fill="#939393" fill-rule="evenodd" d="M78.567 40.588a3.508 3.508 0 01-3.583-3.43c-.01-.53.107-1.03.311-1.484l-6.191-2.35.717-1.867 6.915 2.625a3.491 3.491 0 011.696-.489 3.508 3.508 0 013.583 3.43 3.506 3.506 0 01-3.448 3.565zm-.096-4.997c-.833.016-1.494.7-1.478 1.528a1.503 1.503 0 001.535 1.47 1.502 1.502 0 001.478-1.527 1.504 1.504 0 00-1.535-1.471zM59.967 28.5l.717-1.867 7.199 2.733-.716 1.867-7.2-2.733zm-10.141-4.805l.717-1.867 7.199 2.733-.716 1.867-7.2-2.733zM39.685 18.89l.716-1.867 7.2 2.732-.717 1.868-7.199-2.733zm-11.146-4.786l.716-1.868 7.2 2.734-.716 1.867-7.2-2.733zM17.393 9.318l.717-1.867 7.199 2.733-.716 1.867-7.2-2.733zm-3.946-2.052L7.634 5.059a3.504 3.504 0 01-3.07 1.951C2.623 7.047 1.018 5.511.981 3.58A3.507 3.507 0 014.43.015a3.5 3.5 0 013.534 3.03l6.2 2.353-.717 1.868zM4.468 2.014c-.832.016-1.494.7-1.478 1.528a1.504 1.504 0 001.536 1.47 1.503 1.503 0 001.478-1.528 1.504 1.504 0 00-1.536-1.47z"/></svg>