<svg xmlns="http://www.w3.org/2000/svg" width="87" height="29"><path fill="#939393" fill-rule="evenodd" d="M83.371 28.287a3.516 3.516 0 01-4.096-2.807 3.466 3.466 0 01.065-1.514l-6.491-1.319.402-1.959 7.252 1.474a3.49 3.49 0 011.594-.756 3.515 3.515 0 014.095 2.807 3.5 3.5 0 01-2.821 4.074zm.845-3.712a1.507 1.507 0 00-1.755-1.203 1.5 1.5 0 00-1.209 1.746 1.507 1.507 0 001.755 1.203 1.5 1.5 0 001.209-1.746zm-21.17-5.213l.402-1.959 7.55 1.535-.402 1.958-7.55-1.534zm-10.791-3.104l.403-1.959 7.55 1.535-.403 1.958-7.55-1.534zm-10.79-3.104l.402-1.959 7.55 1.535-.402 1.958-7.55-1.534zm-11.779-2.923l.402-1.959 7.55 1.535-.402 1.958-7.55-1.534zM17.907 7.308l.402-1.959 7.55 1.535-.402 1.958-7.55-1.534zm-4.229-1.389L7.582 4.68a3.493 3.493 0 01-2.71 2.421c-1.91.35-3.744-.906-4.096-2.806A3.5 3.5 0 013.597.221 3.507 3.507 0 017.58 2.639l6.501 1.322-.403 1.958zM5.717 3.39a1.508 1.508 0 00-2.964.542c.15.815.936 1.353 1.754 1.203a1.5 1.5 0 001.21-1.745z"/></svg>