<svg xmlns="http://www.w3.org/2000/svg" width="87" height="23"><path fill="#939393" fill-rule="evenodd" d="M85.538 6.62a3.528 3.528 0 01-4.914-.757 3.454 3.454 0 01-.603-1.392l-6.423 1.618-.494-1.938 7.176-1.807a3.473 3.473 0 011.105-1.37 3.527 3.527 0 014.914.758 3.485 3.485 0 01-.761 4.888zm-.86-3.708a1.513 1.513 0 00-2.106-.325 1.494 1.494 0 00-.327 2.095 1.511 1.511 0 002.106.325 1.494 1.494 0 00.327-2.095zM62.841 5.43l7.47-1.882.493 1.938-7.47 1.882-.493-1.938zM51.766 7.299l7.47-1.882.494 1.938-7.471 1.882-.493-1.938zM40.692 9.168l7.47-1.882.493 1.938-7.47 1.881-.493-1.937zm-11.886 2.458l7.47-1.881.494 1.938-7.471 1.881-.493-1.938zm-11.885 2.459l7.47-1.881.493 1.938-7.47 1.881-.493-1.938zM5.583 21.472a3.527 3.527 0 01-4.914-.758 3.485 3.485 0 01.761-4.888 3.53 3.53 0 014.661.452l6.415-1.615.493 1.937-6.032 1.52a3.474 3.474 0 01-1.384 3.352zm-.86-3.708a1.511 1.511 0 00-2.106-.325 1.493 1.493 0 00-.326 2.095 1.512 1.512 0 002.106.325 1.495 1.495 0 00.326-2.095z"/></svg>