<svg xmlns="http://www.w3.org/2000/svg" width="84" height="34"><path fill="#5EA5BD" fill-rule="evenodd" d="M82.712 32.771a3.498 3.498 0 01-4.949.017c-.959-.951-1.235-2.316-.86-3.523l-5.708-2.401.776-1.844 6.087 2.562a3.488 3.488 0 014.638.24 3.499 3.499 0 01.016 4.949zm-1.426-3.53a1.5 1.5 0 10-2.114 2.126 1.5 1.5 0 002.114-2.126zm-21.419-6.582l.776-1.843 7.069 2.975-.775 1.843-7.07-2.975zm-11.328-4.203l.776-1.844 7.069 2.975-.775 1.843-7.07-2.974zm-11.328-4.205l.776-1.843 7.069 2.975-.776 1.843-7.069-2.975zm-10.619-3.499l.776-1.844 7.069 2.975-.775 1.844-7.07-2.975zm-10.618-3.5l.775-1.843 7.07 2.975-.776 1.843-7.069-2.975zM7.056 4.875a3.48 3.48 0 01-.802 1.286 3.5 3.5 0 11-.017-4.949c.439.436.723.964.882 1.519l6.791 2.858-.776 1.843-6.078-2.557zM4.828 2.63a1.501 1.501 0 00-2.114 2.129A1.5 1.5 0 104.828 2.63z"/></svg>