<svg xmlns="http://www.w3.org/2000/svg" width="80" height="94">
    <path fill="#ECF2F7" fill-rule="evenodd" d="M75 88.999c-4.574 4.981-12 5-12 5H13s-5.251-1.494-8-5c-3.433-4.376-5.205-11.149-5-14 .563-7.848 9-6 9-6S5.836 59.053 8 49c4.481-20.816 6.044-25.625 12-28.001 4.847-1.933 11-2 11-2v-3s-5.552 1.015-8-3c-1.667-2.732-.061-7.312 2-9.999C26.801.651 29-.001 29-.001h21s3.041-.018 5 2c2.908 2.998 4.81 8.783 2 12-2.264 2.593-8 2-8 2v3s6.74-.592 12 2c5.093 2.51 8.949 10.065 12 29 1.637 10.16-2 19-2 19s6.617-1.248 8 5c.85 3.842-.506 11.196-4 15zm-53 2h37v-13s-.844-.537-2-1c-1.332-.532-3-1-3-1v7s-.74.959-2 1.001c-1.261.04-1-1.001-1-1.001v-7h-3v7s-.529 1-2 1.001c-1.316 0-2-1.001-2-1.001v-7h-2v7s-.61.888-2 1.001c-1.391.113-2-1.001-2-1.001v-7h-2v7s-.652.959-2 1.001c-1.348.04-2-1.001-2-1.001v-7h-2v7s-.834.959-2 1.001c-1.412.05-2-1.001-2-1.001v-6c-.001-1.252-4-.514-4 0v14zm-18-17C2.848 76.594 4.597 82.617 8 87c3.403 4.382 7 3.999 7 3.999h4v-13h-3S13.098 75.594 11 73c-2.099-2.595-5.848-1.595-7 .999zm49-61s1.572-.471 2-4C55.428 5.47 51 3 51 3H30s-2.674.881-4 5c-1.326 4.117 2 4.999 2 4.999h25zm-19 3v3h12v-3H34zm34 27c-2.756-8.794-3.511-18.797-10-20-6.489-1.203-30.05-2.143-35 0-5.376 2.328-8.232 9.617-10 16.001-3.507 12.663-1.859 27.041-1 29 2.282 5.205 6 6.999 6 6.999S33.776 72.864 41 73c7.224.135 21 1.999 21 1.999s6.503-2.907 7-10c.497-7.092 1.756-13.205-1-22zM73 72c-4.396-.224-5.033 2.764-7 3.999-1.968 1.236-4 2-4 2v13h4s5.889-1.873 8-6.999c2.11-5.127 3.396-11.777-1-12zm-16-1.001c-1.767.172-2-2-2-2s-.432-31.797-2-35c-1.568-3.202-20.753-2.907-25-1-4.247 1.908-3 36-3 36s-.35 2.859-2 3.001c-1.651.141-2-2-2-2s-.031-1.903 0-6.001c.031-4.097.386-28.617 4-33 1.877-2.276 7.599-2.903 15-3 7.401-.096 14.273 1.595 16 4 1.727 2.406 3 37 3 37s-.234 1.829-2 2z" opacity=".788"/>
</svg>
