<svg xmlns="http://www.w3.org/2000/svg" width="143" height="53">
    <path fill="#68B0C9" fill-rule="evenodd" d="M142.153 6.633c-.865 1.133-2.203 1.685-3.523 1.595l.011.01-6.921 8.179-2.35-2.073 6.406-7.57c-1.22-1.448-1.324-3.597-.131-5.161 1.374-1.802 3.946-2.139 5.743-.753 1.797 1.386 2.139 3.971.765 5.773zm-1.872-4.323c-.998-.77-2.426-.582-3.19.419-.764 1.001-.573 2.437.425 3.207s2.427.583 3.19-.418c.764-1.002.574-2.438-.425-3.208zm-19.563 22.719l5.608-5.988 1.991 1.884-5.607 5.988-1.992-1.884zm-9.909 9.415l6.114-5.464 1.818 2.053-6.114 5.464-1.818-2.053zm-13.422 7.552l6.954-4.336 1.445 2.333-6.954 4.336-1.445-2.333zm-11.085 4.633l7.582-3.101 1.035 2.543-7.582 3.1-1.035-2.542zM74.487 49.11l8.102-1.206.407 2.715-8.102 1.206-.407-2.715zm-12.638 1.151l8.191-.188.07 2.744-8.191.188-.07-2.744zm-13.166 1.407l.222-2.735 8.167.692-.223 2.735-8.166-.692zm-11.927-1.649l.594-2.677 7.997 1.814-.594 2.677-7.997-1.814zm-10.883-4.738l1.158-2.483 7.42 3.512-1.158 2.482-7.42-3.511zm-10.337-4.518l1.158-2.482 7.421 3.511-1.159 2.482-7.42-3.511zm-3.24-2.413l-5.984-4.616c-1.413.919-3.299.91-4.714-.181-1.797-1.386-2.139-3.971-.765-5.773 1.375-1.802 3.946-2.139 5.743-.753 1.415 1.091 1.912 2.921 1.396 4.531l5.984 4.616-1.66 2.176zM5.47 28.477c-.998-.77-2.427-.583-3.19.419-.764 1.001-.574 2.437.424 3.207.999.77 2.427.582 3.191-.419.764-1.001.573-2.437-.425-3.207z"/>
</svg>
