<svg xmlns="http://www.w3.org/2000/svg" width="150" height="78">
    <path fill="#68B0C9" fill-rule="evenodd" d="M148.622 16.254c-1.079 2.239-3.769 3.18-6.008 2.101-1.762-.849-2.702-2.696-2.503-4.536l-7.456-3.592 1.303-2.703 7.455 3.592c1.315-1.302 3.345-1.718 5.108-.869 2.239 1.079 3.18 3.768 2.101 6.007zm-2.969-4.205c-1.244-.599-2.738-.077-3.338 1.167-.599 1.244-.076 2.738 1.168 3.337 1.244.6 2.738.077 3.337-1.167.599-1.244.077-2.738-1.167-3.337zM120.49 6.503l.695-2.918 8.755 2.086-.695 2.919-8.755-2.087zm-12.113-2.505l.695-2.919 8.755 2.086-.695 2.919-8.755-2.086zm-12.344-.591l.046-2.999 8.999.138-.046 3-8.999-.139zM82.957 2.57l8.933-1.1.367 2.977-8.933 1.1-.367-2.977zm-14.356 2.5l8.764-2.047.682 2.921-8.764 2.048-.682-2.922zm-13.367 5.257l8.443-3.117 1.039 2.815-8.443 3.116-1.039-2.814zm-11.811 7.556l7.464-5.028 1.676 2.488-7.464 5.029-1.676-2.489zm-10.336 8.955l6.515-6.208 2.07 2.171-6.516 6.209-2.069-2.172zM21.143 39.35l5.364-7.228 2.409 1.788-5.364 7.227-2.409-1.787zm-8.056 12.978l4.702-7.673 2.558 1.567-4.702 7.674-2.558-1.568zM8.202 69.157c1.632 1.275 2.22 3.553 1.284 5.495-1.079 2.239-3.768 3.179-6.007 2.1-2.239-1.078-3.18-3.768-2.101-6.007.678-1.408 1.994-2.3 3.434-2.501l-.014-.008 5.629-10.315 2.985 1.69-5.21 9.546zM3.18 71.613c-.599 1.244-.077 2.738 1.167 3.338 1.244.599 2.738.076 3.337-1.167.6-1.244.077-2.738-1.167-3.338-1.244-.599-2.738-.076-3.337 1.167z"/>
</svg>
