<svg xmlns="http://www.w3.org/2000/svg" width="82" height="41">
    <path fill="#939393" fill-rule="evenodd" d="M78.567 40.588c-1.942.037-3.546-1.499-3.583-3.43-.01-.53.107-1.03.311-1.484l-6.191-2.35.717-1.867 6.915 2.625c.502-.292 1.074-.477 1.696-.489 1.942-.037 3.546 1.499 3.583 3.43.037 1.932-1.506 3.528-3.448 3.565zm-.096-4.997c-.833.016-1.494.7-1.478 1.528.016.828.703 1.486 1.535 1.47.833-.015 1.494-.7 1.478-1.527-.016-.828-.703-1.486-1.535-1.471zM59.967 28.5l.717-1.867 7.199 2.733-.716 1.867-7.2-2.733zm-10.141-4.805l.717-1.867 7.199 2.733-.716 1.867-7.2-2.733zM39.685 18.89l.716-1.867 7.2 2.732-.717 1.868-7.199-2.733zm-11.146-4.786l.716-1.868 7.2 2.734-.716 1.867-7.2-2.733zM17.393 9.318l.717-1.867 7.199 2.733-.716 1.867-7.2-2.733zm-3.946-2.052L7.634 5.059c-.564 1.13-1.713 1.925-3.07 1.951-1.941.037-3.546-1.499-3.583-3.43C.944 1.648 2.488.052 4.43.015c1.803-.034 3.298 1.294 3.534 3.03l6.2 2.353-.717 1.868zM4.468 2.014c-.832.016-1.494.7-1.478 1.528.016.827.704 1.486 1.536 1.47.832-.016 1.494-.7 1.478-1.528-.016-.828-.704-1.486-1.536-1.47z"/>
</svg>
