<svg xmlns="http://www.w3.org/2000/svg" width="86" height="30">
    <path fill="#5EA5BD" fill-rule="evenodd" d="M85.508 5.036c-.35 1.901-2.175 3.158-4.076 2.808-1.328-.245-2.327-1.215-2.698-2.423l-6.067 1.24-.401-1.96 6.471-1.322C79.251 1.703 80.935.634 82.7.959c1.901.351 3.158 2.175 2.808 4.077zm-3.17-2.11c-.815-.15-1.597.389-1.747 1.204-.15.814.389 1.597 1.203 1.747.815.15 1.597-.389 1.747-1.204.15-.814-.388-1.597-1.203-1.747zm-21.796 4.7l7.515-1.536.401 1.96-7.515 1.535-.401-1.959zm-11.723 2.925l7.514-1.536.401 1.96-7.515 1.535-.4-1.959zm-11.724 2.924l7.515-1.535.4 1.959-7.515 1.535-.4-1.959zm-10.74 3.106l7.514-1.536.401 1.96-7.515 1.535-.4-1.959zm-10.741 3.105l7.515-1.535.4 1.959-7.514 1.536-.401-1.96zm-8.238 6.546c-.35 1.901-2.175 3.159-4.076 2.808-1.901-.35-3.159-2.175-2.809-4.076.351-1.901 2.176-3.158 4.077-2.808.609.112 1.141.388 1.586.757l7.218-1.475.401 1.959-6.462 1.321c.126.481.161.993.065 1.514zm-3.171-2.109c-.814-.15-1.597.389-1.747 1.203-.15.815.389 1.597 1.204 1.747.815.15 1.597-.388 1.747-1.203.15-.815-.389-1.597-1.204-1.747z"/>
</svg>
