<svg xmlns="http://www.w3.org/2000/svg" width="82" height="42">
    <path fill="#5EA5BD" fill-rule="evenodd" d="M77.761 7.702c-1.35-.026-2.493-.822-3.055-1.953L68.92 7.957l-.713-1.869 6.17-2.354C74.612 1.997 76.1.668 77.895.703c1.933.037 3.47 1.633 3.433 3.566-.037 1.933-1.634 3.47-3.567 3.433zm.096-5c-.828-.016-1.513.643-1.528 1.471-.016.829.642 1.513 1.471 1.529.828.016 1.512-.643 1.528-1.471.016-.829-.643-1.513-1.471-1.529zm-20.744 8.175l7.166-2.735.713 1.869-7.166 2.734-.713-1.868zm-11.094 4.788l7.167-2.734.712 1.868-7.165 2.735-.714-1.869zm-11.093 4.788l7.166-2.734.713 1.868-7.166 2.735-.713-1.869zm-10.094 4.808l7.166-2.734.713 1.868-7.166 2.735-.713-1.869zm-10.094 4.808l7.166-2.735.713 1.869-7.166 2.734-.713-1.868zm-7.067 7.796c-.037 1.932-1.634 3.469-3.567 3.432C2.172 41.26.635 39.663.672 37.731c.037-1.933 1.634-3.47 3.566-3.433.62.012 1.189.198 1.689.489l6.883-2.626.713 1.868-6.162 2.352c.203.454.32.954.31 1.484zM4.2 36.298c-.828-.016-1.512.642-1.528 1.471-.016.828.642 1.512 1.471 1.528.828.016 1.512-.643 1.528-1.471.016-.828-.643-1.512-1.471-1.528z"/>
</svg>
