<svg xmlns="http://www.w3.org/2000/svg" width="65" height="105">
    <path fill="#68B0C9" fill-rule="evenodd" d="M64.326 51.545l-1.998-.099.346-6.991 1.998.099-.346 6.991zm-5.622-17.711l1.943-.471 1.649 6.803-1.944.471-1.648-6.803zM52.72 23.649l1.662-1.113 3.897 5.814-1.661 1.114-3.898-5.815zm-6.377-7.462l1.434-1.394 4.88 5.019-1.435 1.394-4.879-5.019zm-8.351-5.158l1.043-1.707 5.973 3.649-1.043 1.707-5.973-3.649zm-8.104 83.425l6.439-2.747.785 1.839-6.439 2.747-.785-1.839zm-1.016-87.75l.704-1.872 6.552 2.464-.704 1.872-6.552-2.464zm-9.97 89.742l6.945-.876.25 1.984-6.945.876-.25-1.984zM17.898 4.527l.266-1.983 6.937.929-.265 1.982-6.938-.928zM5.507 98.959l7.868 4.272-.942 1.695-11.425-6.202.421-.757-.385-.716 11.387-6.271.919 1.708-7.865 4.332 9.527.033-.025 1.94-9.48-.034zM4.5 9C2.015 9 0 6.985 0 4.5 0 2.014 2.015 0 4.5 0c1.956 0 3.604 1.256 4.224 3H15v2H8.95C8.698 7.247 6.814 9 4.5 9zm0-7C3.119 2 2 3.119 2 4.5S3.119 7 4.5 7 7 5.881 7 4.5 5.881 2 4.5 2zm43.294 84.45l-5.272 4.606-1.316-1.506 5.272-4.606 1.316 1.506zm7.587-9.675l-4.151 5.636-1.611-1.186 4.151-5.636 1.611 1.186zm5.504-9.525l-2.958 6.344-1.813-.845 2.959-6.344 1.812.845zm1.314-11.878l1.962.389-1.361 6.867-1.962-.39 1.361-6.866z"/>
</svg>
