<svg xmlns="http://www.w3.org/2000/svg" width="85" height="34"><path fill="#939393" fill-rule="evenodd" d="M83.375 6.38a3.529 3.529 0 01-4.973-.017 3.462 3.462 0 01-.805-1.286L71.49 7.634l-.78-1.843 6.823-2.856c.16-.555.445-1.083.886-1.519a3.53 3.53 0 014.973.017 3.485 3.485 0 01-.017 4.947zm-1.408-3.538a1.513 1.513 0 00-2.132-.008 1.496 1.496 0 00-.007 2.121c.587.587 1.541.59 2.131.007a1.494 1.494 0 00.008-2.12zM60.755 8.585l7.103-2.974.779 1.843-7.103 2.973-.779-1.842zm-10.668 3.497l7.103-2.973.779 1.842-7.103 2.974-.779-1.843zM39.418 15.58l7.103-2.973.779 1.842-7.103 2.973-.779-1.842zm-11.381 4.202l7.103-2.973.779 1.842-7.103 2.973-.779-1.842zm-11.381 4.202l7.103-2.974.779 1.843-7.103 2.973-.779-1.842zM6.558 32.976a3.529 3.529 0 01-4.973-.017 3.486 3.486 0 01.017-4.947c1.28-1.264 3.283-1.332 4.66-.24l6.115-2.56.78 1.843-5.735 2.4a3.471 3.471 0 01-.864 3.521zm-3.54-3.545a1.494 1.494 0 00-.007 2.12c.587.587 1.541.59 2.131.007a1.493 1.493 0 00.007-2.12 1.511 1.511 0 00-2.131-.007z"/></svg>