<svg xmlns="http://www.w3.org/2000/svg" width="88" height="22"><path fill="#5EA5BD" fill-rule="evenodd" d="M86.615 20.496a3.499 3.499 0 01-4.891.758 3.486 3.486 0 01-1.378-3.354l-6.003-1.52.491-1.939 6.385 1.617a3.499 3.499 0 015.396 4.438zm-1.939-3.277a1.5 1.5 0 10-1.771 2.42 1.5 1.5 0 001.771-2.42zM62.513 13.92l.491-1.939 7.435 1.883-.49 1.938-7.436-1.882zm-11.83-2.46l.491-1.939 7.435 1.882-.49 1.939-7.436-1.882zM38.853 9l.491-1.939 7.435 1.882-.49 1.939L38.853 9zM27.83 7.13l.491-1.939 7.436 1.882-.491 1.939L27.83 7.13zM16.807 5.26l.491-1.939 7.436 1.883-.491 1.939-7.436-1.883zM7.634 4.245a3.475 3.475 0 01-.6 1.392A3.501 3.501 0 116.276.745c.5.366.859.846 1.1 1.371l7.142 1.808-.491 1.939-6.393-1.618zM5.095 2.36a1.5 1.5 0 10-1.772 2.419A1.5 1.5 0 005.095 2.36z"/></svg>