<svg xmlns="http://www.w3.org/2000/svg" width="86" height="30"><path fill="#5EA5BD" fill-rule="evenodd" d="M85.508 5.036a3.5 3.5 0 01-4.076 2.808 3.486 3.486 0 01-2.698-2.423l-6.067 1.24-.401-1.96 6.471-1.322C79.251 1.703 80.935.634 82.7.959a3.5 3.5 0 012.808 4.077zm-3.17-2.11a1.5 1.5 0 10-.543 2.95 1.5 1.5 0 00.543-2.95zm-21.796 4.7l7.515-1.536.401 1.96-7.515 1.535-.401-1.959zm-11.723 2.925l7.514-1.536.401 1.96-7.515 1.535-.4-1.959zm-11.724 2.924l7.515-1.535.4 1.959-7.515 1.535-.4-1.959zm-10.74 3.106l7.514-1.536.401 1.96-7.515 1.535-.4-1.959zm-10.741 3.105l7.515-1.535.4 1.959-7.514 1.536-.401-1.96zm-8.238 6.546a3.5 3.5 0 11-2.808-4.076 3.458 3.458 0 011.586.757l7.218-1.475.401 1.959-6.462 1.321c.126.481.161.993.065 1.514zm-3.171-2.109a1.5 1.5 0 10-.543 2.952 1.5 1.5 0 00.543-2.952z"/></svg>