<svg xmlns="http://www.w3.org/2000/svg" width="24" height="32"><defs><filter id="juevg74oga"><feFlood flood-color="#68B0C9" flood-opacity="1" result="floodOut"/><feComposite in="floodOut" in2="SourceGraphic" operator="atop" result="compOut"/><feBlend in="compOut" in2="SourceGraphic"/></filter></defs><g filter="url(#juevg74oga)"><path fill-rule="evenodd" d="M12 31.999S0 18.627 0 12C0 5.372 5.372 0 12 0c6.627 0 12 5.372 12 12 0 6.627-12 19.999-12 19.999zM12 2C6.477 2 2 6.701 2 12.5S12 29 12 29s10-10.701 10-16.5C22 6.701 17.523 2 12 2zm0 17a7 7 0 110-14 7 7 0 010 14zm0-12a5 5 0 100 10 5 5 0 000-10z"/></g></svg>